<svg id="Layer_1" enable-background="new 0 0 512.001 512.001" height="512" viewBox="0 0 512.001 512.001" width="512" xmlns="http://www.w3.org/2000/svg"><path d="m401.903 120.332c-10.038-27.464-27.936-51.99-51.239-69.945-27.339-21.063-60.073-32.196-94.663-32.196s-67.325 11.133-94.664 32.196c-23.303 17.955-41.201 42.481-51.239 69.945-60.917 1.204-110.098 51.132-110.098 112.331 0 29.326 11.232 57.077 31.627 78.14 16.937 17.491 38.677 28.823 62.322 32.708 0 0 .051 136.158.125 136.765.737 7.595 7.137 13.533 14.926 13.533h294c7.792 0 14.193-5.943 14.926-13.543.074-.604.124-136.755.124-136.755 23.646-3.885 45.386-15.217 62.322-32.708 20.395-21.063 31.627-48.814 31.627-78.14.002-61.199-49.179-111.127-110.096-112.331zm-13.902 343.097h-264v-34.619h264zm14.535-148.47c-8.079.278-14.484 6.908-14.484 14.991v68.859h-264.102v-68.859c0-8.083-6.406-14.713-14.484-14.991-44.561-1.532-79.466-37.68-79.466-82.296 0-30.1 17.025-58.388 43.533-72.616 14.045-7.539 30.197-10.801 46.067-9.416 7.181.617 13.813-3.959 15.751-10.915 15.025-53.888 64.638-91.525 120.649-91.525s105.624 37.637 120.649 91.525c1.939 6.955 8.558 11.54 15.751 10.915 21.867-1.908 43.873 5.099 60.576 19.326 55.976 47.676 23.351 142.465-50.44 145.002z"/></svg>